<svg width="282" height="171" viewBox="0 0 282 171" fill="none" xmlns="http://www.w3.org/2000/svg">
<path d="M32.4071 168.97C32.3285 169.128 32.0773 169.463 31.7004 169.539C31.6612 169.76 31.4885 170.203 31.1116 170.203H14.9772C14.6004 170.203 14.4276 169.76 14.3884 169.539C14.0115 169.463 13.7603 169.128 13.6818 168.97H32.4071Z" fill="#0B0921"/>
<path d="M267.19 168.97C267.111 169.128 266.86 169.463 266.483 169.539C266.444 169.76 266.271 170.203 265.894 170.203H249.76C249.383 170.203 249.211 169.76 249.171 169.539C248.794 169.463 248.543 169.128 248.465 168.97H267.19Z" fill="#0B0921"/>
<path d="M281.001 162.806V162.068H0.00134277V162.806C0.00134277 164.964 0.00134277 166.043 0.605827 166.867C1.13755 167.591 1.98598 168.181 3.02954 168.55C4.2159 168.97 5.76895 168.97 8.87503 168.97H272.128C275.234 168.97 276.787 168.97 277.973 168.55C279.017 168.181 279.865 167.591 280.397 166.867C281.001 166.043 281.001 164.964 281.001 162.806Z" fill="#36363E"/>
<path d="M115.235 162.068H165.766C165.766 163.974 164.221 165.519 162.315 165.519H118.686C116.78 165.519 115.235 163.974 115.235 162.068Z" fill="#4D4D56"/>
<path d="M258.201 6.75011C258.201 3.02267 255.179 0.000976562 251.452 0.000976562H29.7972C26.0698 0.000976562 23.0481 3.02265 23.0481 6.7501L23.0481 157.139C23.0481 158.618 23.2946 162.069 24.8968 162.069H256.352C257.954 162.069 258.201 158.618 258.201 157.139V6.75011Z" fill="#0B0921"/>
<mask id="mask0_320_495" style="mask-type:alpha" maskUnits="userSpaceOnUse" x="28" y="4" width="225" height="147">
<path d="M28.4683 4.8064V150.606H252.775V4.8064H154.933C154.607 4.8064 154.343 5.07048 154.343 5.39624V8.55653C154.343 9.20805 153.815 9.73622 153.164 9.73622H128.203C127.552 9.73622 127.024 9.20805 127.024 8.55653V5.39624C127.024 5.07048 126.759 4.8064 126.434 4.8064H28.4683Z" fill="#4D4D56"/>
</mask>
<g mask="url(#mask0_320_495)">
<rect width="224.667" height="148.927" transform="translate(28.0834 5.10645)" fill="white"/>
<rect x="27.9923" y="24.7625" width="225.015" height="2.15326" fill="#ED754A"/>
<rect x="27.9923" y="16.1497" width="225.015" height="2.15326" fill="#ED754A"/>
<rect x="27.9923" y="128.119" width="225.015" height="2.15326" fill="#ED754A"/>
<rect x="27.9923" y="136.732" width="225.015" height="2.15326" fill="#ED754A"/>
<rect x="88.2836" y="5.3833" width="2.15326" height="148.575" fill="#ED754A"/>
<rect x="68.9042" y="5.3833" width="2.15326" height="148.575" fill="#ED754A"/>
<rect x="191.64" y="5.10645" width="2.15326" height="148.575" fill="#ED754A"/>
<rect x="211.019" y="5.10645" width="2.15326" height="148.575" fill="#ED754A"/>
<path d="M141.008 26.916C113.118 26.916 90.4373 49.6159 90.4373 77.5256C90.4053 84.7671 91.9583 91.9325 94.9935 98.5475C98.0301 105.166 102.479 111.083 108.047 115.908C108.476 114.841 109.042 113.831 109.732 112.902C104.688 108.405 100.668 102.936 97.9281 96.8436C95.1884 90.7514 93.7897 84.1709 93.8216 77.5236C93.8216 51.4699 114.999 30.2861 141.008 30.2861C167.015 30.2861 188.268 51.4699 188.268 77.5256C188.268 103.581 167.03 124.763 141.008 124.763C138.328 124.76 135.653 124.526 133.016 124.063C132.82 125.181 132.492 126.273 132.036 127.318C135.016 127.847 138.039 128.115 141.069 128.119C168.957 128.119 191.64 105.419 191.64 77.5256C191.64 49.63 168.896 26.916 141.008 26.916Z" fill="#52C143"/>
<path d="M153.762 49.8644C144.249 47.4153 144.43 69.9087 144.43 69.9087H159.058L154.544 63.4924L178.505 74.5337L154.498 85.5932L158.743 78.5312H143.121C143.121 120.286 124.037 120.737 124.037 120.737L115.231 120.941L116.029 110.307L123.119 110.072C128.341 110.19 130.855 78.3996 130.855 78.3996H125.615L126.414 70.6819H132.223V69.0627C132.223 43.3004 146.073 42.2276 146.073 42.2276C149.52 41.6811 151.057 41.7459 154.979 42.1325L153.762 49.8644Z" fill="#379AFF"/>
</g>
</svg>
