<svg width="500" height="304" viewBox="0 0 500 304" fill="none" xmlns="http://www.w3.org/2000/svg">
<path d="M57.6647 300.898C57.525 301.18 57.078 301.776 56.4074 301.911C56.3376 302.304 56.0302 303.091 55.3596 303.091H26.6508C25.9802 303.091 25.6729 302.304 25.603 301.911C24.9325 301.776 24.4854 301.18 24.3457 300.898H57.6647Z" fill="#0B0921"/>
<path d="M475.428 300.898C475.288 301.18 474.841 301.776 474.171 301.911C474.101 302.304 473.793 303.091 473.123 303.091H444.414C443.743 303.091 443.436 302.304 443.366 301.911C442.696 301.776 442.249 301.18 442.109 300.898H475.428Z" fill="#0B0921"/>
<path d="M500.004 289.931V288.617H0.00390625V289.931C0.00390625 293.77 0.00390625 295.689 1.0795 297.155C2.02562 298.445 3.53529 299.494 5.39217 300.151C7.50312 300.898 10.2665 300.898 15.7934 300.898H484.214C489.741 300.898 492.505 300.898 494.616 300.151C496.473 299.494 497.982 298.445 498.928 297.155C500.004 295.689 500.004 293.77 500.004 289.931Z" fill="#36363E"/>
<path d="M205.047 288.617H294.959C294.959 292.008 292.21 294.758 288.819 294.758H211.187C207.796 294.758 205.047 292.008 205.047 288.617Z" fill="#4D4D56"/>
<path d="M459.433 12.2513C459.433 5.61886 454.056 0.242188 447.424 0.242188H53.0209C46.3884 0.242188 41.0117 5.61883 41.0117 12.2513L41.0117 279.847C41.0117 282.479 41.4503 288.619 44.3012 288.619H456.143C458.994 288.619 459.433 282.479 459.433 279.847V12.2513Z" fill="#0B0921"/>
<mask id="mask0_552_13066" style="mask-type:alpha" maskUnits="userSpaceOnUse" x="50" y="8" width="400" height="261">
<path d="M50.6562 8.79492V268.225H449.779V8.79492H275.683C275.103 8.79492 274.633 9.26482 274.633 9.84446V15.4678C274.633 16.6271 273.694 17.5668 272.534 17.5668H228.121C226.961 17.5668 226.022 16.6271 226.022 15.4678V9.84447C226.022 9.26482 225.552 8.79492 224.972 8.79492H50.6562Z" fill="#4D4D56"/>
</mask>
<g mask="url(#mask0_552_13066)">
<rect width="399.763" height="264.994" transform="translate(49.9707 9.32617)" fill="white"/>
<rect x="50" y="57.9766" width="400.383" height="3" fill="#ED754A"/>
<rect x="49.8066" y="38.9766" width="400.383" height="3" fill="#ED754A"/>
<rect x="50" y="222" width="400.383" height="3" fill="#ED754A"/>
<rect x="49.8066" y="241" width="400.383" height="3" fill="#ED754A"/>
<rect x="165.605" y="10" width="3" height="264.368" fill="#ED754A"/>
<rect x="114.605" y="9.82031" width="3" height="264.368" fill="#ED754A"/>
<rect x="330.371" y="9" width="3" height="264.368" fill="#ED754A"/>
<rect x="380.371" y="9.32617" width="3" height="264.368" fill="#ED754A"/>
<path d="M249.387 62C205.606 62 170.001 97.6343 170.001 141.447C169.951 152.815 172.388 164.063 177.153 174.448C181.92 184.837 188.905 194.126 197.645 201.7C198.318 200.025 199.207 198.44 200.29 196.982C192.372 189.923 186.061 181.336 181.76 171.773C177.459 162.209 175.263 151.879 175.314 141.444C175.314 100.545 208.558 67.2903 249.387 67.2903C290.213 67.2903 323.576 100.545 323.576 141.447C323.576 182.35 290.236 215.601 249.387 215.601C245.18 215.596 240.981 215.228 236.841 214.502C236.534 216.257 236.018 217.972 235.302 219.611C239.98 220.442 244.726 220.863 249.482 220.869C293.261 220.869 328.869 185.235 328.869 141.447C328.869 97.6566 293.166 62 249.387 62Z" fill="#52C143"/>
<path d="M269.41 98.0264C254.477 94.1818 254.761 129.492 254.761 129.492H277.724L270.637 119.42L308.252 136.752L270.565 154.114L277.23 143.028H252.706C252.706 208.574 222.747 209.282 222.747 209.282L208.924 209.603L210.178 192.909L221.307 192.541C229.504 192.725 233.451 142.821 233.451 142.821H225.225L226.479 130.706H235.599V128.164C235.599 87.7222 257.341 86.0382 257.341 86.0382C262.752 85.1803 265.164 85.2819 271.322 85.8888L269.41 98.0264Z" fill="#379AFF"/>
</g>
</svg>
