<svg width="800" height="729" viewBox="0 0 800 729" fill="none" xmlns="http://www.w3.org/2000/svg">
<g clip-path="url(#clip0_331_6168)">
<rect x="7.9082" y="1.8418" width="785.171" height="1612.05" rx="122.922" fill="black"/>
<rect x="22.3496" y="13.4629" width="759.14" height="1588.43" rx="108.782" fill="black"/>
<rect x="0.947266" y="596.008" width="6.94545" height="122.394" rx="2.85866" fill="black"/>
<rect x="0.947266" y="440.551" width="6.94545" height="122.394" rx="2.85866" fill="black"/>
<rect x="0.947266" y="323.492" width="6.94545" height="62.5335" rx="2.85866" fill="black"/>
<rect x="792.082" y="481.936" width="7.04395" height="195.379" rx="2.85866" fill="black"/>
<path d="M247.736 41.6465H131.224C84.1516 41.6465 45.9922 79.8055 45.9922 126.877V1492.17C45.9922 1539.24 84.1515 1577.4 131.224 1577.4H670.105C717.177 1577.4 755.336 1539.24 755.336 1492.17V126.877C755.336 79.8056 717.177 41.6465 670.105 41.6465H553.76C550.667 43.5497 548.605 46.9659 548.605 50.8638L548.604 59.3347C548.604 82.7995 529.582 101.821 506.117 101.821H295.378C271.913 101.821 252.89 82.7989 252.891 59.3337L252.891 50.864C252.891 46.9661 250.829 43.5497 247.736 41.6465Z" fill="#EEDABF"/>
<path d="M232.289 398.949V398.638C232.155 391.163 233.548 383.738 236.383 376.812C239.219 369.885 243.44 363.6 248.79 358.336C254.14 353.071 260.509 348.936 267.514 346.18C274.519 343.424 282.013 342.103 289.546 342.298C297.55 341.902 305.548 343.196 313.011 346.093C320.474 348.991 327.233 353.426 332.841 359.107L317.468 376.693C310.095 369.101 300.011 364.685 289.389 364.398C270.879 364.398 257.545 379.65 257.545 398.327V398.638C257.545 417.314 270.565 432.878 289.389 432.878C301.938 432.878 309.625 427.897 318.252 420.116L333.625 435.523C328.098 441.939 321.172 447.024 313.373 450.395C305.574 453.765 297.104 455.332 288.605 454.978C281.163 455.098 273.773 453.729 266.875 450.954C259.978 448.178 253.715 444.053 248.459 438.824C243.203 433.595 239.063 427.37 236.285 420.519C233.507 413.668 232.148 406.332 232.289 398.949Z" fill="#222222"/>
<path d="M350.932 398.949V398.638C350.798 391.163 352.19 383.738 355.026 376.812C357.862 369.885 362.082 363.6 367.433 358.336C372.783 353.071 379.152 348.936 386.157 346.18C393.161 343.424 400.656 342.103 408.189 342.298C416.193 341.902 424.191 343.196 431.654 346.093C439.117 348.991 445.876 353.426 451.484 359.107L436.111 376.693C428.738 369.101 418.654 364.685 408.032 364.398C389.521 364.398 376.188 379.65 376.188 398.327V398.638C376.188 417.314 389.207 432.878 408.032 432.878C420.581 432.878 428.268 427.897 436.895 420.116L452.268 435.523C446.74 441.939 439.815 447.024 432.016 450.394C424.217 453.765 415.747 455.332 407.248 454.978C399.806 455.098 392.416 453.729 385.518 450.954C378.621 448.178 372.358 444.053 367.102 438.824C361.846 433.595 357.706 427.37 354.928 420.519C352.15 413.668 350.791 406.332 350.932 398.949Z" fill="#222222"/>
<path d="M469.339 398.949V398.638C469.204 391.163 470.597 383.738 473.433 376.812C476.269 369.885 480.489 363.6 485.839 358.336C491.19 353.071 497.559 348.936 504.563 346.18C511.568 343.424 519.063 342.103 526.595 342.298C534.6 341.902 542.598 343.196 550.061 346.093C557.524 348.991 564.283 353.426 569.89 359.107L554.517 376.693C547.144 369.101 537.061 364.685 526.438 364.398C507.928 364.398 494.594 379.65 494.594 398.327V398.638C494.594 417.314 507.614 432.878 526.438 432.878C538.988 432.878 546.674 427.897 555.302 420.116L570.675 435.523C565.147 441.939 558.222 447.024 550.422 450.395C542.623 453.765 534.154 455.332 525.654 454.978C518.212 455.098 510.822 453.729 503.925 450.954C497.027 448.178 490.764 444.053 485.508 438.824C480.253 433.595 476.112 427.37 473.334 420.519C470.556 413.668 469.197 406.332 469.339 398.949Z" fill="#222222"/>
<rect x="147.68" y="285.83" width="507.593" height="225.597" rx="14.0998" stroke="black" stroke-width="14.0998" stroke-linecap="round" stroke-linejoin="round"/>
</g>
<defs>
<clipPath id="clip0_331_6168">
<rect width="800" height="728.58" fill="white"/>
</clipPath>
</defs>
</svg>
