<svg width="800" height="827" viewBox="0 0 800 827" fill="none" xmlns="http://www.w3.org/2000/svg">
<g clip-path="url(#clip0_331_6850)">
<rect x="7.91003" y="1.84473" width="785.171" height="1612.05" rx="122.922" fill="black"/>
<rect x="22.349" y="13.4648" width="759.14" height="1588.43" rx="108.782" fill="black"/>
<rect x="0.940918" y="596.001" width="6.94545" height="122.394" rx="2.85866" fill="black"/>
<rect x="0.940918" y="440.546" width="6.94545" height="122.394" rx="2.85866" fill="black"/>
<rect x="0.940918" y="323.491" width="6.94545" height="62.5334" rx="2.85866" fill="black"/>
<rect x="792.072" y="481.927" width="7.04395" height="195.379" rx="2.85866" fill="black"/>
<path d="M247.737 41.6455H131.224C84.1523 41.6455 45.9929 79.8045 45.9929 126.876V1492.16C45.9929 1539.23 84.1522 1577.39 131.224 1577.39H670.105C717.177 1577.39 755.337 1539.24 755.337 1492.16V126.876C755.337 79.8046 717.177 41.6455 670.105 41.6455H553.76C550.668 43.5487 548.605 46.9649 548.605 50.8628L548.605 59.3337C548.605 82.7985 529.583 101.82 506.118 101.82H295.379C271.914 101.82 252.891 82.7979 252.891 59.3327L252.892 50.863C252.892 46.9651 250.829 43.5487 247.737 41.6455Z" fill="white"/>
<mask id="mask0_331_6850" style="mask-type:luminance" maskUnits="userSpaceOnUse" x="235" y="215" width="334" height="335">
<path fill-rule="evenodd" clip-rule="evenodd" d="M401.84 534.006C318.302 534.006 250.35 466.026 250.35 382.488C250.35 298.935 318.302 230.957 401.84 230.957C485.36 230.957 553.327 298.935 553.327 382.488C553.327 466.026 485.36 534.006 401.84 534.006ZM401.84 215.602C309.841 215.602 235 290.471 235 382.488C235 474.506 309.841 549.358 401.84 549.358C493.839 549.358 568.677 474.506 568.677 382.488C568.677 290.471 493.839 215.602 401.84 215.602Z" fill="white"/>
</mask>
<g mask="url(#mask0_331_6850)">
<mask id="mask1_331_6850" style="mask-type:luminance" maskUnits="userSpaceOnUse" x="-99" y="-119" width="1954" height="1005">
<path d="M-98.6763 885.277H1854.95V-118.138H-98.6763V885.277Z" fill="white"/>
</mask>
<g mask="url(#mask1_331_6850)">
<path d="M220.643 563.698H583.05V201.273H220.643V563.698Z" fill="#FBAF3A"/>
</g>
</g>
<mask id="mask2_331_6850" style="mask-type:luminance" maskUnits="userSpaceOnUse" x="363" y="278" width="78" height="223">
<path fill-rule="evenodd" clip-rule="evenodd" d="M416.596 466.593C416.596 470.859 413.149 474.308 408.883 474.308L408.845 474.348C408.793 474.348 408.742 474.308 408.69 474.308C406.621 474.308 404.955 475.991 404.955 478.046C404.955 478.147 405.007 478.238 405.007 478.342C404.892 482.49 401.519 485.85 397.33 485.85C393.081 485.85 389.619 482.401 389.619 478.135L389.605 478.121C389.605 478.095 389.619 478.069 389.619 478.046C389.619 475.991 387.95 474.308 385.884 474.308C385.858 474.308 385.818 474.334 385.781 474.334L385.755 474.308C381.503 474.308 378.053 470.859 378.053 466.593C378.053 462.33 381.503 458.878 385.755 458.878L385.781 458.852C385.818 458.852 385.858 458.878 385.884 458.878C387.95 458.878 389.619 457.198 389.619 455.143C389.619 450.88 393.081 447.428 397.33 447.428C401.505 447.428 404.866 450.748 405.007 454.899C404.995 454.988 404.955 455.054 404.955 455.143C404.955 457.198 406.621 458.878 408.69 458.878C408.742 458.878 408.793 458.852 408.845 458.841L408.883 458.878C413.149 458.878 416.596 462.33 416.596 466.593ZM437.696 293.312C439.261 293.312 440.528 292.045 440.528 290.494V281.228C440.528 279.677 439.261 278.413 437.696 278.413H378.687C377.122 278.413 375.869 279.677 375.869 281.228V290.494C375.869 292.045 377.122 293.312 378.687 293.312H389.697V336.634H378.687C377.122 336.634 375.869 337.901 375.869 339.449V348.935C375.869 350.498 377.122 351.765 378.687 351.765H389.697V423.389H378.687C377.122 423.389 375.869 424.656 375.869 426.221V435.708C375.869 437.256 377.122 438.523 378.687 438.523H383.118C380.742 441.095 379.075 444.145 378.351 447.454C374.809 448.231 371.502 449.999 368.827 452.663C361.254 460.249 361.254 472.591 368.842 480.191C371.516 482.851 374.809 484.623 378.351 485.411C379.127 488.941 380.897 492.246 383.557 494.909C387.24 498.593 392.124 500.609 397.319 500.609C402.527 500.609 407.412 498.593 411.08 494.909C413.741 492.246 415.525 488.941 416.301 485.411C419.899 484.607 423.194 482.796 425.799 480.191C433.395 472.591 433.395 460.249 425.799 452.648C423.121 449.988 419.829 448.231 416.301 447.454C415.565 444.145 413.896 441.095 411.52 438.523H416.663C418.225 438.523 419.492 437.256 419.492 435.708V426.221C419.492 424.656 418.225 423.389 416.663 423.389H404.955V351.765H437.696C439.261 351.765 440.528 350.498 440.528 348.935V339.449C440.528 337.901 439.261 336.634 437.696 336.634H404.955V322.299H423.871C425.434 322.299 426.689 321.035 426.689 319.484V310.811C426.689 309.246 425.434 307.982 423.871 307.982H404.955V293.312H437.696Z" fill="white"/>
</mask>
<g mask="url(#mask2_331_6850)">
<mask id="mask3_331_6850" style="mask-type:luminance" maskUnits="userSpaceOnUse" x="-99" y="-119" width="1954" height="1005">
<path d="M-98.6781 885.274H1854.95V-118.141H-98.6781V885.274Z" fill="white"/>
</mask>
<g mask="url(#mask3_331_6850)">
<path d="M348.792 514.939H454.899V264.072H348.792V514.939Z" fill="#FBAF3A"/>
</g>
</g>
<mask id="mask4_331_6850" style="mask-type:luminance" maskUnits="userSpaceOnUse" x="257" y="623" width="47" height="54">
<path fill-rule="evenodd" clip-rule="evenodd" d="M301.92 623.04H295.742C294.739 623.04 293.924 623.85 293.924 624.858V653.077C293.924 662.059 289.286 667.525 281.128 667.525C272.961 667.525 267.573 662.51 267.573 653.077V624.858C267.573 623.85 266.758 623.04 265.755 623.04H259.582C258.573 623.04 257.765 623.85 257.765 624.858V653.077C257.765 668.873 268.469 676.52 281.053 676.52C294.225 676.52 303.739 668.578 303.739 653.077V624.858C303.739 623.85 302.924 623.04 301.92 623.04Z" fill="white"/>
</mask>
<g mask="url(#mask4_331_6850)">
<mask id="mask5_331_6850" style="mask-type:luminance" maskUnits="userSpaceOnUse" x="-174" y="406" width="949" height="488">
<path d="M-173.192 893.039H774.321V406.381H-173.192V893.039Z" fill="white"/>
</mask>
<g mask="url(#mask5_331_6850)">
<path d="M250.797 683.479H310.705V616.095H250.797V683.479Z" fill="black"/>
</g>
</g>
<mask id="mask6_331_6850" style="mask-type:luminance" maskUnits="userSpaceOnUse" x="392" y="623" width="46" height="53">
<path fill-rule="evenodd" clip-rule="evenodd" d="M435.846 623.04H429.666C428.663 623.04 427.855 623.849 427.855 624.858V645.129H402.092V624.858C402.092 623.849 401.277 623.04 400.281 623.04H394.027C393.024 623.04 392.21 623.849 392.21 624.858V673.648C392.21 674.651 393.024 675.466 394.027 675.466H400.281C401.277 675.466 402.092 674.651 402.092 673.648V654.274H427.855V673.648C427.855 674.651 428.663 675.466 429.666 675.466H435.846C436.848 675.466 437.663 674.651 437.663 673.648V624.858C437.663 623.849 436.848 623.04 435.846 623.04Z" fill="white"/>
</mask>
<g mask="url(#mask6_331_6850)">
<mask id="mask7_331_6850" style="mask-type:luminance" maskUnits="userSpaceOnUse" x="-174" y="406" width="949" height="488">
<path d="M-173.188 893.032H774.324V406.374H-173.188V893.032Z" fill="white"/>
</mask>
<g mask="url(#mask7_331_6850)">
<path d="M385.243 682.417H444.631V616.086H385.243V682.417Z" fill="black"/>
</g>
</g>
<mask id="mask8_331_6850" style="mask-type:luminance" maskUnits="userSpaceOnUse" x="463" y="622" width="11" height="54">
<path fill-rule="evenodd" clip-rule="evenodd" d="M471.831 622.968H465.651C464.648 622.968 463.834 623.777 463.834 624.786V673.576C463.834 674.58 464.648 675.395 465.651 675.395H471.831C472.833 675.395 473.648 674.58 473.648 673.576V624.786C473.648 623.777 472.833 622.968 471.831 622.968Z" fill="white"/>
</mask>
<g mask="url(#mask8_331_6850)">
<mask id="mask9_331_6850" style="mask-type:luminance" maskUnits="userSpaceOnUse" x="-174" y="406" width="949" height="488">
<path d="M-173.188 893.037H774.325V406.379H-173.188V893.037Z" fill="white"/>
</mask>
<g mask="url(#mask9_331_6850)">
<path d="M456.867 682.352H480.615V616.022H456.867V682.352Z" fill="black"/>
</g>
</g>
<mask id="mask10_331_6850" style="mask-type:luminance" maskUnits="userSpaceOnUse" x="192" y="622" width="45" height="54">
<path fill-rule="evenodd" clip-rule="evenodd" d="M235.02 622.925H194.179C193.176 622.925 192.362 623.74 192.362 624.744V630.698C192.362 631.695 193.176 632.509 194.179 632.509H197.595V665.618H194.179C193.176 665.618 192.362 666.427 192.362 667.435V673.535C192.362 674.537 193.176 675.352 194.179 675.352H235.02C236.023 675.352 236.837 674.537 236.837 673.535V667.435C236.837 666.427 236.023 665.618 235.02 665.618H207.408V653.783H228.478C229.48 653.783 230.295 652.969 230.295 651.966V646.388C230.295 645.384 229.48 644.569 228.478 644.569H207.408V632.509H235.02C236.023 632.509 236.837 631.695 236.837 630.698V624.744C236.837 623.74 236.023 622.925 235.02 622.925Z" fill="white"/>
</mask>
<g mask="url(#mask10_331_6850)">
<mask id="mask11_331_6850" style="mask-type:luminance" maskUnits="userSpaceOnUse" x="-174" y="406" width="949" height="488">
<path d="M-173.187 893.028H774.325V406.37H-173.187V893.028Z" fill="white"/>
</mask>
<g mask="url(#mask11_331_6850)">
<path d="M185.393 682.301H243.802V615.97H185.393V682.301Z" fill="black"/>
</g>
</g>
<mask id="mask12_331_6850" style="mask-type:luminance" maskUnits="userSpaceOnUse" x="566" y="622" width="46" height="54">
<path fill-rule="evenodd" clip-rule="evenodd" d="M609.335 632.513C610.339 632.513 611.152 631.699 611.152 630.695V624.747C611.152 623.744 610.339 622.93 609.335 622.93H568.495C567.492 622.93 566.678 623.744 566.678 624.747V630.695C566.678 631.699 567.492 632.513 568.495 632.513H571.91V665.615H568.495C567.492 665.615 566.678 666.43 566.678 667.432V673.538C566.678 674.54 567.492 675.35 568.495 675.35H609.335C610.339 675.35 611.152 674.54 611.152 673.538V667.432C611.152 666.43 610.339 665.615 609.335 665.615H581.724V653.787H602.793C603.795 653.787 604.61 652.972 604.61 651.969V646.384C604.61 645.381 603.795 644.566 602.793 644.566H581.724V632.513H609.335Z" fill="white"/>
</mask>
<g mask="url(#mask12_331_6850)">
<mask id="mask13_331_6850" style="mask-type:luminance" maskUnits="userSpaceOnUse" x="-174" y="406" width="949" height="488">
<path d="M-173.191 893.038H774.321V406.381H-173.191V893.038Z" fill="white"/>
</mask>
<g mask="url(#mask13_331_6850)">
<path d="M559.702 682.309H618.111V615.985H559.702V682.309Z" fill="black"/>
</g>
</g>
<mask id="mask14_331_6850" style="mask-type:luminance" maskUnits="userSpaceOnUse" x="324" y="622" width="50" height="54">
<path fill-rule="evenodd" clip-rule="evenodd" d="M354.663 650.897H339.836V632.324H354.663C367.247 632.324 367.315 650.897 354.663 650.897ZM354.663 622.885C347.03 622.885 339.397 622.954 331.764 622.96C331.633 622.96 331.52 623.01 331.4 623.035H326.538C325.536 623.035 324.721 623.85 324.721 624.852V630.8C324.721 631.81 325.536 632.619 326.538 632.619H329.953V673.568C329.953 674.57 330.768 675.385 331.77 675.385H338.025C339.028 675.385 339.836 674.57 339.836 673.568V659.96H354.663C380.344 659.96 380.27 622.885 354.663 622.885Z" fill="white"/>
</mask>
<g mask="url(#mask14_331_6850)">
<mask id="mask15_331_6850" style="mask-type:luminance" maskUnits="userSpaceOnUse" x="-174" y="406" width="949" height="488">
<path d="M-173.175 893.025H774.338V406.367H-173.175V893.025Z" fill="white"/>
</mask>
<g mask="url(#mask15_331_6850)">
<path d="M317.756 682.334H380.865V615.929H317.756V682.334Z" fill="black"/>
</g>
</g>
<mask id="mask16_331_6850" style="mask-type:luminance" maskUnits="userSpaceOnUse" x="494" y="622" width="52" height="54">
<path fill-rule="evenodd" clip-rule="evenodd" d="M510.033 648.955V632.182H525.086C531.302 632.182 534.066 636.376 534.066 640.568C534.066 644.762 531.371 648.955 525.086 648.955H510.033ZM545.421 673.433L530.694 656.815C540.658 654.798 543.955 647.526 543.955 640.337C543.955 631.28 537.437 623.044 525.086 622.968C517.378 622.968 496.729 623.044 496.729 623.044C495.725 623.044 494.912 623.852 494.912 624.854V630.81C494.912 631.812 495.725 632.627 496.729 632.627H500.15V673.576C500.15 674.58 500.959 675.395 501.961 675.395H508.216C509.218 675.395 510.033 674.58 510.033 673.576V657.868H519.546L534.273 674.767C534.441 674.964 534.651 675.122 534.887 675.231C535.123 675.339 535.38 675.395 535.639 675.395H544.588C545.227 675.395 545.742 674.873 545.742 674.235C545.742 673.928 545.616 673.658 545.416 673.451L545.421 673.433Z" fill="white"/>
</mask>
<g mask="url(#mask16_331_6850)">
<mask id="mask17_331_6850" style="mask-type:luminance" maskUnits="userSpaceOnUse" x="-174" y="406" width="949" height="488">
<path d="M-173.187 893.037H774.326V406.379H-173.187V893.037Z" fill="white"/>
</mask>
<g mask="url(#mask17_331_6850)">
<path d="M487.943 682.352H552.707V616.022H487.943V682.352Z" fill="black"/>
</g>
</g>
</g>
<defs>
<clipPath id="clip0_331_6850">
<rect width="800" height="826.814" fill="white"/>
</clipPath>
</defs>
</svg>
