<svg width="345" height="226" viewBox="0 0 345 226" fill="none" xmlns="http://www.w3.org/2000/svg">
<rect x="5" y="6" width="340" height="220" rx="42" fill="#4B4B4B"/>
<path d="M42 1H298C320.644 1 339 19.3563 339 42V178C339 200.644 320.644 219 298 219H42C19.3563 219 1 200.644 1 178V42C1 19.3563 19.3563 1 42 1Z" fill="url(#paint0_linear_1822_18235)"/>
<path d="M42 1H298C320.644 1 339 19.3563 339 42V178C339 200.644 320.644 219 298 219H42C19.3563 219 1 200.644 1 178V42C1 19.3563 19.3563 1 42 1Z" stroke="#3E3E3E" stroke-width="2"/>
<rect x="26.2715" y="174" width="230" height="16" rx="8" fill="black"/>
<rect x="26.2715" y="136" width="150" height="30" rx="15" fill="black"/>
<path d="M190.043 50.3796V50.2729C189.996 47.7086 190.476 45.1616 191.453 42.7855C192.43 40.4094 193.885 38.2534 195.728 36.4474C197.572 34.6414 199.766 33.2229 202.18 32.2774C204.593 31.3318 207.176 30.8789 209.771 30.9458C212.529 30.81 215.285 31.2537 217.857 32.2476C220.428 33.2416 222.757 34.7632 224.69 36.7118L219.392 42.7449C216.852 40.1403 213.377 38.6256 209.717 38.5271C203.339 38.5271 198.745 43.7593 198.745 50.1661V50.2728C198.745 56.6796 203.231 62.0186 209.717 62.0186C214.041 62.0186 216.69 60.3102 219.663 57.6407L224.96 62.9262C223.055 65.1271 220.669 66.8716 217.982 68.0277C215.294 69.1839 212.376 69.7215 209.447 69.6C206.883 69.6411 204.336 69.1716 201.96 68.2196C199.583 67.2675 197.425 65.8524 195.614 64.0586C193.803 62.2649 192.376 60.1292 191.419 57.7791C190.462 55.4289 189.994 52.9124 190.043 50.3796Z" fill="black"/>
<path d="M230.923 50.3796V50.2729C230.877 47.7086 231.357 45.1616 232.334 42.7855C233.311 40.4094 234.765 38.2534 236.609 36.4474C238.452 34.6414 240.647 33.2229 243.061 32.2774C245.474 31.3318 248.057 30.8789 250.652 30.9458C253.41 30.81 256.166 31.2537 258.738 32.2476C261.309 33.2416 263.638 34.7632 265.57 36.7118L260.273 42.7449C257.733 40.1403 254.258 38.6256 250.598 38.5271C244.22 38.5271 239.626 43.7593 239.626 50.1661V50.2728C239.626 56.6796 244.112 62.0186 250.598 62.0186C254.922 62.0186 257.571 60.3102 260.544 57.6407L265.841 62.9262C263.936 65.1271 261.55 66.8715 258.862 68.0277C256.175 69.1839 253.257 69.7215 250.328 69.6C247.764 69.6411 245.217 69.1716 242.841 68.2196C240.464 67.2675 238.306 65.8524 236.495 64.0586C234.684 62.2649 233.257 60.1292 232.3 57.7791C231.343 55.4289 230.875 52.9124 230.923 50.3796Z" fill="black"/>
<path d="M271.723 50.3796V50.2729C271.676 47.7086 272.156 45.1616 273.133 42.7855C274.111 40.4094 275.565 38.2534 277.408 36.4474C279.252 34.6414 281.446 33.2229 283.86 32.2774C286.274 31.3318 288.856 30.8789 291.452 30.9458C294.21 30.81 296.965 31.2537 299.537 32.2476C302.109 33.2416 304.437 34.7632 306.37 36.7118L301.073 42.7449C298.532 40.1403 295.058 38.6256 291.397 38.5271C285.019 38.5271 280.425 43.7593 280.425 50.1661V50.2728C280.425 56.6796 284.911 62.0186 291.397 62.0186C295.722 62.0186 298.37 60.3102 301.343 57.6407L306.64 62.9262C304.735 65.1271 302.349 66.8716 299.662 68.0277C296.974 69.1839 294.056 69.7215 291.127 69.6C288.563 69.6411 286.017 69.1716 283.64 68.2196C281.263 67.2675 279.105 65.8524 277.294 64.0586C275.483 62.2649 274.057 60.1292 273.099 57.7791C272.142 55.4289 271.674 52.9124 271.723 50.3796Z" fill="black"/>
<defs>
<linearGradient id="paint0_linear_1822_18235" x1="8.81736e-07" y1="72.7636" x2="274.141" y2="231.687" gradientUnits="userSpaceOnUse">
<stop stop-color="#C9C9C9"/>
<stop offset="0.328125" stop-color="white"/>
<stop offset="0.578125" stop-color="white"/>
<stop offset="1" stop-color="#7E7E7E"/>
</linearGradient>
</defs>
</svg>
